<svg xmlns="http://www.w3.org/2000/svg" width="148.948" height="22" viewBox="0 0 148.948 22"><path d="M11,0C8.011,0,7.635.013,6.463.066A8.066,8.066,0,0,0,3.794.578,5.344,5.344,0,0,0,1.847,1.846,5.418,5.418,0,0,0,.576,3.794a8.045,8.045,0,0,0-.51,2.671C.014,7.638,0,8.012,0,11s.013,3.361.066,4.535A8.073,8.073,0,0,0,.578,18.2a5.393,5.393,0,0,0,1.267,1.948,5.392,5.392,0,0,0,1.947,1.271,8.082,8.082,0,0,0,2.67.51C7.635,21.987,8.009,22,11,22s3.359-.013,4.534-.066a8.082,8.082,0,0,0,2.67-.51A5.646,5.646,0,0,0,21.422,18.2a8.167,8.167,0,0,0,.512-2.669C21.986,14.359,22,13.985,22,11s-.014-3.362-.066-4.535a8.177,8.177,0,0,0-.512-2.671,5.389,5.389,0,0,0-1.269-1.948A5.328,5.328,0,0,0,18.206.575,8.077,8.077,0,0,0,15.528.066C14.354.013,13.982,0,10.995,0ZM10.01,1.982H11c2.935,0,3.282.011,4.442.064a6.083,6.083,0,0,1,2.042.378,3.4,3.4,0,0,1,1.264.824,3.431,3.431,0,0,1,.823,1.264,6.089,6.089,0,0,1,.378,2.043c.054,1.158.064,1.507.064,4.444s-.011,3.284-.064,4.444a6.069,6.069,0,0,1-.378,2.041,3.643,3.643,0,0,1-2.087,2.086,6.019,6.019,0,0,1-2.042.38c-1.158.054-1.507.064-4.442.064S7.714,20,6.554,19.948a6.084,6.084,0,0,1-2.042-.38,3.4,3.4,0,0,1-1.265-.822,3.4,3.4,0,0,1-.822-1.264,6.089,6.089,0,0,1-.379-2.043c-.052-1.16-.063-1.507-.063-4.445s.011-3.284.063-4.444a6.035,6.035,0,0,1,.379-2.043,3.4,3.4,0,0,1,.822-1.264,3.422,3.422,0,0,1,1.265-.824,6.123,6.123,0,0,1,2.042-.38C7.569,2,7.961,1.982,10.01,1.98Zm6.857,1.826a1.319,1.319,0,1,0,.934.386A1.321,1.321,0,0,0,16.867,3.808ZM11,5.351A5.649,5.649,0,1,0,16.645,11,5.648,5.648,0,0,0,11,5.351Zm0,1.982a3.663,3.663,0,1,0,0,.007Z" transform="translate(66.857 0)" fill="#706969"/><path d="M33.31,11.6a11.363,11.363,0,0,1-3.222.882A5.6,5.6,0,0,0,32.554,9.4a11.249,11.249,0,0,1-3.56,1.347,5.589,5.589,0,0,0-9.543,5.068A15.969,15.969,0,0,1,7.9,10.014a5.485,5.485,0,0,0-.759,2.8,5.542,5.542,0,0,0,2.492,4.625,5.705,5.705,0,0,1-2.541-.693v.065a5.571,5.571,0,0,0,4.493,5.448,5.573,5.573,0,0,1-1.472.2,5.954,5.954,0,0,1-1.056-.1,5.614,5.614,0,0,0,5.233,3.858,11.323,11.323,0,0,1-6.96,2.378A11.085,11.085,0,0,1,6,28.508,16.014,16.014,0,0,0,14.588,31,15.762,15.762,0,0,0,30.532,15.195c0-.24-.008-.48-.019-.717a11.024,11.024,0,0,0,2.8-2.877" transform="translate(-5.997 -9)" fill="#706969"/><path d="M18.577,9.7H14.7V7.5c0-1.135.092-1.85,1.719-1.85h2.055v-3.5A28.672,28.672,0,0,0,15.462,2,4.812,4.812,0,0,0,10.3,7.169V9.7H7v4.4h3.3V24h4.4V14.1h3.373Z" transform="translate(130.37 -2)" fill="#706969"/></svg>