<svg xmlns="http://www.w3.org/2000/svg" width="29.796" height="24" viewBox="0 0 29.796 24"><path d="M35.793,11.838a12.4,12.4,0,0,1-3.515.962,6.107,6.107,0,0,0,2.69-3.358,12.272,12.272,0,0,1-3.884,1.47,6.1,6.1,0,0,0-10.41,5.529,17.421,17.421,0,0,1-12.6-6.334,5.984,5.984,0,0,0-.828,3.05A6.045,6.045,0,0,0,9.966,18.2a6.224,6.224,0,0,1-2.772-.756v.071a6.077,6.077,0,0,0,4.9,5.943,6.079,6.079,0,0,1-1.606.218,6.5,6.5,0,0,1-1.152-.112,6.124,6.124,0,0,0,5.709,4.209,12.352,12.352,0,0,1-7.592,2.594A12.093,12.093,0,0,1,6,30.281,17.469,17.469,0,0,0,15.369,33,17.2,17.2,0,0,0,32.762,15.758c0-.262-.008-.524-.021-.782a12.027,12.027,0,0,0,3.051-3.138" transform="translate(-5.997 -9)" fill="#706969"/></svg>